<svg width="189" height="32" viewBox="0 0 189 32" fill="none" xmlns="http://www.w3.org/2000/svg">
<path d="M90.1797 25.6626V6.01997H98.789C100.925 6.01997 102.569 6.47504 103.721 7.3852C104.872 8.27678 105.448 9.52127 105.448 11.1187C105.448 12.3075 105.095 13.3105 104.389 14.1278C103.683 14.945 102.708 15.493 101.464 15.7716V15.3537C102.894 15.558 103.999 16.0781 104.779 16.9139C105.578 17.7312 105.977 18.8178 105.977 20.1738C105.977 21.9198 105.374 23.2757 104.166 24.2416C102.959 25.1889 101.278 25.6626 99.1233 25.6626H90.1797ZM93.6345 22.9321H98.7054C99.9127 22.9321 100.851 22.7092 101.519 22.2634C102.188 21.7991 102.522 21.0468 102.522 20.0066C102.522 18.9479 102.188 18.1956 101.519 17.7498C100.851 17.2854 99.9127 17.0533 98.7054 17.0533H93.6345V22.9321ZM93.6345 14.3507H98.176C99.4577 14.3507 100.405 14.1185 101.018 13.6541C101.649 13.1712 101.965 12.4653 101.965 11.5366C101.965 10.6079 101.649 9.91134 101.018 9.44697C100.405 8.96403 99.4577 8.72256 98.176 8.72256H93.6345V14.3507Z" fill="white"/>
<path d="M109.11 25.6626V15.1865C109.11 14.5921 109.091 13.9885 109.054 13.3755C109.036 12.7625 108.989 12.1681 108.915 11.5923H112.286L112.676 15.4373H112.119C112.305 14.5085 112.611 13.7377 113.038 13.1247C113.484 12.5118 114.023 12.0567 114.654 11.7595C115.286 11.4623 115.973 11.3137 116.716 11.3137C117.05 11.3137 117.32 11.3323 117.524 11.3694C117.728 11.388 117.933 11.4345 118.137 11.5087L118.109 14.5735C117.756 14.425 117.45 14.3321 117.19 14.2949C116.948 14.2578 116.642 14.2392 116.27 14.2392C115.472 14.2392 114.794 14.4064 114.236 14.7407C113.698 15.0751 113.289 15.5394 113.01 16.1338C112.75 16.7282 112.62 17.4062 112.62 18.1677V25.6626H109.11Z" fill="white"/>
<path d="M120.076 25.6626V11.5923H123.558V25.6626H120.076ZM119.881 8.94546V5.54632H123.753V8.94546H119.881Z" fill="white"/>
<path d="M132.801 25.9412C131.575 25.9412 130.489 25.6533 129.541 25.0775C128.613 24.4831 127.888 23.6379 127.368 22.542C126.848 21.4461 126.588 20.1366 126.588 18.6135C126.588 17.0904 126.848 15.7902 127.368 14.7129C127.888 13.617 128.613 12.7811 129.541 12.2053C130.489 11.6109 131.575 11.3137 132.801 11.3137C133.972 11.3137 135.002 11.6016 135.894 12.1774C136.804 12.7347 137.408 13.4962 137.705 14.4621H137.343V5.15625H140.826V25.6626H137.399V22.6813H137.733C137.436 23.6844 136.832 24.4831 135.922 25.0775C135.03 25.6533 133.99 25.9412 132.801 25.9412ZM133.776 23.2664C134.872 23.2664 135.755 22.8857 136.423 22.1241C137.092 21.344 137.426 20.1738 137.426 18.6135C137.426 17.0533 137.092 15.8923 136.423 15.1308C135.755 14.3692 134.872 13.9885 133.776 13.9885C132.681 13.9885 131.789 14.3692 131.102 15.1308C130.433 15.8923 130.099 17.0533 130.099 18.6135C130.099 20.1738 130.433 21.344 131.102 22.1241C131.789 22.8857 132.681 23.2664 133.776 23.2664Z" fill="white"/>
<path d="M151.138 31.9036C149.837 31.9036 148.658 31.7643 147.599 31.4857C146.559 31.2071 145.63 30.7799 144.813 30.204L145.565 27.6965C146.104 28.0494 146.661 28.3373 147.237 28.5602C147.813 28.7831 148.407 28.9503 149.02 29.0617C149.633 29.1731 150.255 29.2289 150.887 29.2289C152.187 29.2289 153.153 28.9038 153.785 28.2537C154.435 27.6222 154.76 26.712 154.76 25.5233V22.152H155.038C154.741 23.1178 154.137 23.8887 153.227 24.4645C152.336 25.0403 151.305 25.3282 150.135 25.3282C148.872 25.3282 147.766 25.0496 146.819 24.4924C145.89 23.9166 145.166 23.0993 144.646 22.0405C144.126 20.9818 143.866 19.7373 143.866 18.307C143.866 16.8768 144.126 15.6416 144.646 14.6014C145.166 13.5427 145.89 12.7347 146.819 12.1774C147.766 11.6016 148.872 11.3137 150.135 11.3137C151.323 11.3137 152.354 11.6016 153.227 12.1774C154.119 12.7347 154.713 13.4962 155.01 14.4621L154.76 14.2949L155.038 11.5923H158.41C158.335 12.1681 158.28 12.7532 158.242 13.3476C158.205 13.942 158.187 14.5271 158.187 15.1029V25.1053C158.187 27.3157 157.583 28.9967 156.376 30.1483C155.187 31.3185 153.441 31.9036 151.138 31.9036ZM151.082 22.6535C152.196 22.6535 153.079 22.282 153.729 21.539C154.398 20.7775 154.732 19.7001 154.732 18.307C154.732 16.9139 154.398 15.8459 153.729 15.1029C153.079 14.3599 152.196 13.9885 151.082 13.9885C149.949 13.9885 149.048 14.3599 148.379 15.1029C147.711 15.8459 147.376 16.9139 147.376 18.307C147.376 19.7001 147.711 20.7775 148.379 21.539C149.048 22.282 149.949 22.6535 151.082 22.6535Z" fill="white"/>
<path d="M168.748 25.9412C166.389 25.9412 164.541 25.2911 163.204 23.9908C161.866 22.6906 161.198 20.9075 161.198 18.6414C161.198 17.174 161.486 15.8923 162.061 14.7964C162.637 13.7005 163.436 12.8461 164.458 12.2332C165.498 11.6202 166.705 11.3137 168.08 11.3137C169.436 11.3137 170.569 11.6016 171.479 12.1774C172.389 12.7532 173.076 13.5612 173.541 14.6014C174.023 15.6416 174.265 16.8582 174.265 18.2513V19.1708H164.012V17.3319H171.785L171.312 17.7219C171.312 16.4217 171.033 15.428 170.476 14.7407C169.937 14.0535 169.148 13.7098 168.107 13.7098C166.956 13.7098 166.064 14.1185 165.433 14.9358C164.82 15.753 164.513 16.8954 164.513 18.3628V18.725C164.513 20.2481 164.885 21.3904 165.628 22.152C166.389 22.895 167.457 23.2664 168.832 23.2664C169.631 23.2664 170.374 23.1643 171.061 22.96C171.767 22.7371 172.435 22.3842 173.067 21.9012L174.098 24.2416C173.429 24.7803 172.63 25.1982 171.702 25.4954C170.773 25.7926 169.788 25.9412 168.748 25.9412Z" fill="white"/>
<path d="M182.229 25.9412C181.022 25.9412 179.907 25.8019 178.886 25.5233C177.883 25.2261 177.038 24.8174 176.35 24.2973L177.326 21.9569C178.031 22.4399 178.812 22.8114 179.666 23.0714C180.52 23.3315 181.384 23.4615 182.257 23.4615C183.186 23.4615 183.873 23.3036 184.319 22.9878C184.783 22.6721 185.015 22.2448 185.015 21.7062C185.015 21.279 184.867 20.9446 184.57 20.7032C184.291 20.4431 183.836 20.2481 183.204 20.1181L180.418 19.5887C179.229 19.3286 178.319 18.8828 177.688 18.2513C177.075 17.6198 176.768 16.7932 176.768 15.7716C176.768 14.8986 177.001 14.1278 177.465 13.4591C177.948 12.7904 178.626 12.2703 179.499 11.8988C180.39 11.5087 181.431 11.3137 182.619 11.3137C183.66 11.3137 184.635 11.453 185.545 11.7316C186.474 12.0103 187.254 12.4282 187.885 12.9854L186.882 15.2422C186.306 14.7779 185.647 14.4157 184.904 14.1556C184.161 13.8956 183.437 13.7656 182.731 13.7656C181.765 13.7656 181.059 13.942 180.613 14.2949C180.168 14.6293 179.945 15.0658 179.945 15.6044C179.945 16.0131 180.075 16.3567 180.335 16.6353C180.613 16.8954 181.041 17.0904 181.616 17.2204L184.403 17.7498C185.647 17.9913 186.585 18.4185 187.217 19.0314C187.867 19.6258 188.192 20.4431 188.192 21.4833C188.192 22.412 187.941 23.2107 187.439 23.8794C186.938 24.5481 186.241 25.0589 185.35 25.4118C184.458 25.7647 183.418 25.9412 182.229 25.9412Z" fill="white"/>
<path d="M53.6914 25.666V6.02344H60.824C63.0716 6.02344 64.9662 6.4135 66.5078 7.19363C68.0681 7.95519 69.2476 9.06966 70.0463 10.5371C70.845 11.9859 71.2444 13.7505 71.2444 15.8308C71.2444 17.8926 70.845 19.6572 70.0463 21.1246C69.2476 22.5919 68.0681 23.7157 66.5078 24.4958C64.9662 25.276 63.0716 25.666 60.824 25.666H53.6914ZM57.2856 22.6848H60.6011C62.9787 22.6848 64.7433 22.1183 65.8949 20.9852C67.0465 19.8522 67.6223 18.134 67.6223 15.8308C67.6223 13.509 67.0465 11.7908 65.8949 10.6764C64.7433 9.54332 62.9787 8.97679 60.6011 8.97679H57.2856V22.6848Z" fill="#142438"/>
<path d="M81.434 25.9446C79.075 25.9446 77.2268 25.2945 75.8894 23.9943C74.5521 22.6941 73.8834 20.9109 73.8834 18.6448C73.8834 17.1775 74.1713 15.8958 74.7471 14.7999C75.3229 13.704 76.1216 12.8496 77.1432 12.2366C78.1834 11.6237 79.3908 11.3172 80.7653 11.3172C82.1212 11.3172 83.2543 11.6051 84.1644 12.1809C85.0746 12.7567 85.7618 13.5647 86.2262 14.6049C86.7091 15.6451 86.9506 16.8617 86.9506 18.2548V19.1742H76.6974V17.3353H84.4709L83.9972 17.7254C83.9972 16.4252 83.7186 15.4314 83.1614 14.7442C82.6227 14.0569 81.8333 13.7133 80.7931 13.7133C79.6415 13.7133 78.7499 14.1219 78.1184 14.9392C77.5054 15.7565 77.199 16.8988 77.199 18.3662V18.7284C77.199 20.2515 77.5704 21.3939 78.3134 22.1554C79.075 22.8984 80.143 23.2699 81.5175 23.2699C82.3162 23.2699 83.0592 23.1678 83.7465 22.9634C84.4523 22.7405 85.121 22.3876 85.7525 21.9047L86.7834 24.2451C86.1147 24.7837 85.316 25.2017 84.3873 25.4989C83.4586 25.7961 82.4741 25.9446 81.434 25.9446Z" fill="#142438"/>
<path d="M15.0918 30.1856V22.6397C10.9206 22.6397 7.54591 19.265 7.54591 15.0938H0C0 23.4362 6.7494 30.1856 15.0918 30.1856Z" fill="#142438"/>
<path d="M15.0938 30.1856V22.6397C19.265 22.6397 22.6397 19.265 22.6397 15.0938H30.1856C30.1856 23.4362 23.4362 30.1856 15.0938 30.1856Z" fill="white"/>
<path d="M22.4922 0V7.54591C26.6634 7.54591 30.0381 10.9206 30.0381 15.0918H37.584C37.584 6.7494 30.8346 0 22.4922 0Z" fill="#142438"/>
<path d="M22.4942 0V7.54591C18.323 7.54591 14.9483 10.9206 14.9483 15.0918H7.40234C7.40234 6.7494 14.1517 0 22.4942 0Z" fill="white"/>
</svg>
