<svg width="166" height="28" viewBox="0 0 166 28" fill="none" xmlns="http://www.w3.org/2000/svg">
<path d="M46.704 5.01845H53.304C55.176 5.01845 56.784 5.35444 58.128 6.02644C59.472 6.69844 60.496 7.67444 61.2 8.95444C61.92 10.2344 62.28 11.7624 62.28 13.5384C62.28 15.3304 61.928 16.8664 61.224 18.1464C60.52 19.4264 59.496 20.4104 58.152 21.0984C56.808 21.7704 55.192 22.1064 53.304 22.1064H46.704V5.01845ZM53.064 19.0824C56.712 19.0824 58.536 17.2344 58.536 13.5384C58.536 9.87444 56.712 8.04244 53.064 8.04244H50.448V19.0824H53.064ZM75.8996 16.3224H67.8836C67.9476 17.4584 68.2436 18.2904 68.7716 18.8184C69.2996 19.3304 70.0836 19.5864 71.1236 19.5864C71.7476 19.5864 72.3716 19.4824 72.9956 19.2744C73.6196 19.0664 74.1956 18.7624 74.7236 18.3624L75.6836 20.8104C75.1076 21.2744 74.3876 21.6424 73.5236 21.9144C72.6756 22.1704 71.8196 22.2984 70.9556 22.2984C68.9076 22.2984 67.2996 21.7384 66.1316 20.6184C64.9636 19.4824 64.3796 17.9384 64.3796 15.9864C64.3796 14.7544 64.6276 13.6584 65.1236 12.6984C65.6356 11.7224 66.3476 10.9704 67.2596 10.4424C68.1716 9.89844 69.2036 9.62644 70.3556 9.62644C72.0676 9.62644 73.4196 10.1864 74.4116 11.3064C75.4036 12.4104 75.8996 13.9064 75.8996 15.7944V16.3224ZM70.4516 12.1704C69.7636 12.1704 69.2036 12.3704 68.7716 12.7704C68.3556 13.1704 68.0836 13.7544 67.9556 14.5224H72.7796C72.5876 12.9544 71.8116 12.1704 70.4516 12.1704ZM89.3829 13.2744C90.3749 13.5624 91.1429 14.0664 91.6869 14.7864C92.2309 15.5064 92.5029 16.3864 92.5029 17.4264C92.5029 18.8664 91.9669 20.0104 90.8949 20.8584C89.8229 21.6904 88.3669 22.1064 86.5269 22.1064H78.4149V5.01845H86.2869C88.0629 5.01845 89.4629 5.41844 90.4869 6.21844C91.5269 7.00244 92.0469 8.08244 92.0469 9.45845C92.0469 10.3544 91.8069 11.1384 91.3269 11.8104C90.8629 12.4824 90.2149 12.9704 89.3829 13.2744ZM82.0629 11.9784H85.6629C86.6229 11.9784 87.3349 11.8184 87.7989 11.4984C88.2789 11.1624 88.5189 10.6504 88.5189 9.96244C88.5189 9.25844 88.2789 8.73844 87.7989 8.40244C87.3349 8.06644 86.6229 7.89845 85.6629 7.89845H82.0629V11.9784ZM86.0949 19.2264C87.1029 19.2264 87.8309 19.0584 88.2789 18.7224C88.7429 18.3704 88.9749 17.8184 88.9749 17.0664C88.9749 16.2984 88.7429 15.7384 88.2789 15.3864C87.8309 15.0344 87.1029 14.8584 86.0949 14.8584H82.0629V19.2264H86.0949ZM101.966 9.65044C102.478 9.65044 102.91 9.73044 103.262 9.89045L103.238 13.2024C102.646 12.9304 102.054 12.7944 101.462 12.7944C100.502 12.7944 99.7659 13.0584 99.2539 13.5864C98.7579 14.0984 98.5099 14.8184 98.5099 15.7464V22.1064H94.8859V13.4184C94.8859 12.1224 94.8219 10.9624 94.6939 9.93844H98.1019L98.3419 12.0264C98.6459 11.2584 99.1179 10.6744 99.7579 10.2744C100.414 9.85844 101.15 9.65044 101.966 9.65044ZM104.73 9.93844H108.354V22.1064H104.73V9.93844ZM108.474 4.22644V7.63444H104.61V4.22644H108.474ZM123.508 4.44244V22.1064H119.932V20.3064C119.564 20.9304 119.044 21.4184 118.372 21.7704C117.7 22.1224 116.94 22.2984 116.092 22.2984C115.052 22.2984 114.124 22.0344 113.308 21.5064C112.492 20.9624 111.852 20.2104 111.388 19.2504C110.94 18.2744 110.716 17.1624 110.716 15.9144C110.716 14.6664 110.94 13.5704 111.388 12.6264C111.852 11.6664 112.484 10.9304 113.284 10.4184C114.1 9.89044 115.036 9.62644 116.092 9.62644C116.908 9.62644 117.652 9.80244 118.324 10.1544C118.996 10.4904 119.516 10.9624 119.884 11.5704V4.44244H123.508ZM117.148 19.5384C118.044 19.5384 118.732 19.2344 119.212 18.6264C119.692 18.0024 119.932 17.1144 119.932 15.9624C119.932 14.8264 119.684 13.9544 119.188 13.3464C118.708 12.7224 118.028 12.4104 117.148 12.4104C116.252 12.4104 115.556 12.7144 115.06 13.3224C114.564 13.9304 114.316 14.7944 114.316 15.9144C114.316 17.0664 114.564 17.9624 115.06 18.6024C115.556 19.2264 116.252 19.5384 117.148 19.5384ZM138.745 9.93844V21.5544C138.745 23.4904 138.185 24.9624 137.065 25.9704C135.945 26.9784 134.313 27.4824 132.169 27.4824C130.233 27.4824 128.553 27.1064 127.129 26.3544L127.681 23.6664C129.153 24.4024 130.609 24.7704 132.049 24.7704C133.089 24.7704 133.865 24.5224 134.377 24.0264C134.889 23.5464 135.145 22.8104 135.145 21.8184V19.7064C134.761 20.2984 134.225 20.7944 133.537 21.1944C132.849 21.5784 132.089 21.7704 131.257 21.7704C130.201 21.7704 129.265 21.5224 128.449 21.0264C127.633 20.5144 126.993 19.8024 126.529 18.8904C126.065 17.9624 125.833 16.8984 125.833 15.6984C125.833 14.4984 126.065 13.4424 126.529 12.5304C126.993 11.6024 127.633 10.8904 128.449 10.3944C129.265 9.88244 130.201 9.62644 131.257 9.62644C132.105 9.62644 132.873 9.81044 133.561 10.1784C134.249 10.5464 134.777 11.0424 135.145 11.6664V9.93844H138.745ZM132.313 19.0104C133.193 19.0104 133.881 18.7224 134.377 18.1464C134.889 17.5544 135.145 16.7384 135.145 15.6984C135.145 14.6744 134.897 13.8744 134.401 13.2984C133.905 12.7064 133.209 12.4104 132.313 12.4104C131.417 12.4104 130.713 12.7064 130.201 13.2984C129.689 13.8744 129.433 14.6744 129.433 15.6984C129.433 16.7224 129.689 17.5304 130.201 18.1224C130.713 18.7144 131.417 19.0104 132.313 19.0104ZM152.564 16.3224H144.548C144.612 17.4584 144.908 18.2904 145.436 18.8184C145.964 19.3304 146.748 19.5864 147.788 19.5864C148.412 19.5864 149.036 19.4824 149.66 19.2744C150.284 19.0664 150.86 18.7624 151.388 18.3624L152.348 20.8104C151.772 21.2744 151.052 21.6424 150.188 21.9144C149.34 22.1704 148.484 22.2984 147.62 22.2984C145.572 22.2984 143.964 21.7384 142.796 20.6184C141.628 19.4824 141.044 17.9384 141.044 15.9864C141.044 14.7544 141.292 13.6584 141.788 12.6984C142.3 11.7224 143.012 10.9704 143.924 10.4424C144.836 9.89844 145.868 9.62644 147.02 9.62644C148.732 9.62644 150.084 10.1864 151.076 11.3064C152.068 12.4104 152.564 13.9064 152.564 15.7944V16.3224ZM147.116 12.1704C146.428 12.1704 145.868 12.3704 145.436 12.7704C145.02 13.1704 144.748 13.7544 144.62 14.5224H149.444C149.252 12.9544 148.476 12.1704 147.116 12.1704ZM159.495 22.2984C157.191 22.2984 155.375 21.8024 154.047 20.8104L155.007 18.2904C155.647 18.7544 156.359 19.1144 157.143 19.3704C157.927 19.6104 158.727 19.7304 159.543 19.7304C160.167 19.7304 160.647 19.6344 160.983 19.4424C161.319 19.2504 161.487 18.9704 161.487 18.6024C161.487 18.2984 161.367 18.0584 161.127 17.8824C160.887 17.7064 160.463 17.5544 159.855 17.4264L157.863 16.9704C156.695 16.7144 155.831 16.3064 155.271 15.7464C154.727 15.1864 154.455 14.4424 154.455 13.5144C154.455 12.7624 154.671 12.0904 155.103 11.4984C155.551 10.9064 156.167 10.4504 156.951 10.1304C157.735 9.79444 158.639 9.62644 159.663 9.62644C160.527 9.62644 161.375 9.76244 162.207 10.0344C163.039 10.2904 163.783 10.6584 164.439 11.1384L163.431 13.5624C162.807 13.1304 162.167 12.8024 161.511 12.5784C160.871 12.3544 160.247 12.2424 159.639 12.2424C159.047 12.2424 158.583 12.3464 158.247 12.5544C157.911 12.7624 157.743 13.0504 157.743 13.4184C157.743 13.6904 157.839 13.9144 158.031 14.0904C158.239 14.2504 158.599 14.3864 159.111 14.4984L161.151 14.9544C162.399 15.2424 163.303 15.6744 163.863 16.2504C164.423 16.8264 164.703 17.5944 164.703 18.5544C164.703 19.7064 164.239 20.6184 163.311 21.2904C162.383 21.9624 161.111 22.2984 159.495 22.2984Z" fill="white"/>
<path d="M13.6226 26V19.5C10.0296 19.5 7.12264 16.5931 7.12264 13H0.622643C0.622643 20.1861 6.43653 26 13.6226 26Z" fill="white"/>
<path d="M13.6226 26V19.5C17.2157 19.5 20.1226 16.5931 20.1226 13H26.6226C26.6226 20.1861 20.8088 26 13.6226 26Z" fill="#142438"/>
<path d="M20 0V6.5C23.5931 6.5 26.5 9.40694 26.5 13H33C33 5.81389 27.1861 0 20 0Z" fill="white"/>
<path d="M20 0V6.5C16.4069 6.5 13.5 9.40694 13.5 13H7C7 5.81389 12.8139 0 20 0Z" fill="#142438"/>
</svg>
