<svg width="20" height="18" viewBox="0 0 20 18" fill="none" xmlns="http://www.w3.org/2000/svg">
<g clip-path="url(#clip0_147_3346)">
<path d="M15.1436 5.4642C14.7781 5.24991 14.3081 5.24991 13.8903 5.4642L10.9661 7.23207L8.98172 8.35708L6.10966 10.125C5.74412 10.3392 5.27415 10.3392 4.8564 10.125L2.61097 8.73208C2.24543 8.51779 1.98433 8.08922 1.98433 7.60707V4.92848C1.98433 4.4999 2.19321 4.07133 2.61097 3.80347L4.8564 2.46417C5.22193 2.24988 5.69191 2.24988 6.10966 2.46417L8.35509 3.85704C8.72063 4.07133 8.98172 4.4999 8.98172 4.98205V6.74992L10.9661 5.57134V3.74989C10.9661 3.32132 10.7572 2.89274 10.3394 2.62488L6.16188 0.107005C5.79634 -0.107283 5.32637 -0.107283 4.90862 0.107005L0.626632 2.67846C0.208877 2.89274 0 3.32132 0 3.74989V8.78565C0 9.21423 0.208877 9.6428 0.626632 9.91066L4.8564 12.4285C5.22193 12.6428 5.69191 12.6428 6.10966 12.4285L8.98172 10.7142L10.9661 9.53566L13.8381 7.82136C14.2037 7.60707 14.6736 7.60707 15.0914 7.82136L17.3368 9.16066C17.7023 9.37494 17.9634 9.80352 17.9634 10.2857V12.9643C17.9634 13.3928 17.7546 13.8214 17.3368 14.0893L15.1436 15.4286C14.7781 15.6429 14.3081 15.6429 13.8903 15.4286L11.6449 14.0893C11.2794 13.875 11.0183 13.4464 11.0183 12.9643V11.25L9.03394 12.4285V14.1964C9.03394 14.625 9.24282 15.0536 9.66057 15.3214L13.8903 17.8393C14.2559 18.0536 14.7258 18.0536 15.1436 17.8393L19.3734 15.3214C19.7389 15.1071 20 14.6786 20 14.1964V9.10709C20 8.67851 19.7911 8.24993 19.3734 7.98207L15.1436 5.4642Z" fill="#8247E5"/>
</g>
<defs>
<clipPath id="clip0_147_3346">
<rect width="20" height="18" fill="white"/>
</clipPath>
</defs>
</svg>
